# xmcd
#
# Track frame offsets: 
#        150
#        12453
#        24167
#        32880
#        41287
#        49893
#        58069
#        72855
#        78383
#        88745
#        103106
#        114609
#        126873
#        145367
#        154653
#
# Disc length: 2297 seconds
#
# Revision: 0
# Processed by: cddbd v1.5.2PL0 Copyright (c) Steve Scherf et al.
# Submitted via: ExactAudioCopy v0.99pb3
#
DISCID=c908f70f
DTITLE=Tim Hardin - Tim Hardin2
DYEAR=1967
DGENRE=Folk/Rock
TTITLE0=If I Were A Carpenter
TTITLE1=Red Balloon
TTITLE2=Black Sheep Boy
TTITLE3=Lady Came From Baltimore
TTITLE4=Baby Close It's Eyes
TTITLE5=You Upset The Grace Of Living When You Lie
TTITLE6=Speak Like A Child
TTITLE7=See Where You Are And Get Out
TTITLE8=It's Hard To Believe In Love For Long
TTITLE9=Tribute To Hank Williams
TTITLE10=You Can Ruin A Man
TTITLE11=If I Knew
TTITLE12=She's Up To Something New
TTITLE13=Who'll Be The Man
TTITLE14=First Love Song
EXTD=
EXTT0=
EXTT1=
EXTT2=
EXTT3=
EXTT4=
EXTT5=
EXTT6=
EXTT7=
EXTT8=
EXTT9=
EXTT10=
EXTT11=
EXTT12=
EXTT13=
EXTT14=
PLAYORDER=
